HIERARCHY
ROOT Hips
{
  OFFSET -63.3545 39.7034 24.3052
  CHANNELS 6 Xposition Yposition Zposition Zrotation Xrotation Yrotation
  JOINT Chest
  {
    OFFSET 2.13163e-014 4.57 7.10543e-014
    CHANNELS 6 Xposition Yposition Zposition Zrotation Xrotation Yrotation
    JOINT Chest2
    {
      OFFSET 1.06581e-014 6.57 -5.77316e-015
      CHANNELS 6 Xposition Yposition Zposition Zrotation Xrotation Yrotation
      JOINT LeftCollar
      {
        OFFSET 1.06 4.19 1.76
        CHANNELS 6 Xposition Yposition Zposition Zrotation Xrotation Yrotation
        JOINT LeftShoulder
        {
          OFFSET 5.81 4.26326e-014 -1.93842e-022
          CHANNELS 6 Xposition Yposition Zposition Zrotation Xrotation Yrotation
          JOINT LeftElbow
          {
            OFFSET -2.13163e-014 -12.08 7.10543e-015
            CHANNELS 6 Xposition Yposition Zposition Zrotation Xrotation Yrotation
            JOINT LeftWrist
            {
              OFFSET 1.42109e-013 -9.82 7.10543e-015
              CHANNELS 6 Xposition Yposition Zposition Zrotation Xrotation Yrotation
              End Site
              {
                OFFSET 0 -7.37 0
              }
            }
          }
        }
      }
      JOINT RightCollar
      {
        OFFSET -1.06 4.19 1.76
        CHANNELS 6 Xposition Yposition Zposition Zrotation Xrotation Yrotation
        JOINT RightShoulder
        {
          OFFSET -6.06 1.42109e-014 -4.26326e-014
          CHANNELS 6 Xposition Yposition Zposition Zrotation Xrotation Yrotation
          JOINT RightElbow
          {
            OFFSET -2.13163e-014 -11.08 -2.30766e-024
            CHANNELS 6 Xposition Yposition Zposition Zrotation Xrotation Yrotation
            JOINT RightWrist
            {
              OFFSET 1.42109e-014 -9.82 9.76996e-015
              CHANNELS 6 Xposition Yposition Zposition Zrotation Xrotation Yrotation
              End Site
              {
                OFFSET 0 -7.14001 0
              }
            }
          }
        }
      }
      JOINT Neck
      {
        OFFSET -1.77636e-014 4.05 -4.61853e-014
        CHANNELS 6 Xposition Yposition Zposition Zrotation Xrotation Yrotation
        JOINT Head
        {
          OFFSET -3.55271e-015 5.19 -7.10543e-015
          CHANNELS 6 Xposition Yposition Zposition Zrotation Xrotation Yrotation
          End Site
          {
            OFFSET 0 4.14001 0
          }
        }
      }
    }
  }
  JOINT LeftHip
  {
    OFFSET 3.43 -6.39488e-014 2.84217e-013
    CHANNELS 6 Xposition Yposition Zposition Zrotation Xrotation Yrotation
    JOINT LeftKnee
    {
      OFFSET -3.55271e-015 -18.47 -2.06057e-013
      CHANNELS 6 Xposition Yposition Zposition Zrotation Xrotation Yrotation
      JOINT LeftAnkle
      {
        OFFSET 4.44089e-014 -17.95 1.42109e-014
        CHANNELS 6 Xposition Yposition Zposition Zrotation Xrotation Yrotation
        End Site
        {
          OFFSET 0 -3.12 0
        }
      }
    }
  }
  JOINT RightHip
  {
    OFFSET -3.43 1.27898e-013 -5.68434e-014
    CHANNELS 6 Xposition Yposition Zposition Zrotation Xrotation Yrotation
    JOINT RightKnee
    {
      OFFSET 8.61607e-025 -18.47 -9.9476e-014
      CHANNELS 6 Xposition Yposition Zposition Zrotation Xrotation Yrotation
      JOINT RightAnkle
      {
        OFFSET 3.55271e-015 -17.95 5.68434e-014
        CHANNELS 6 Xposition Yposition Zposition Zrotation Xrotation Yrotation
        End Site
        {
          OFFSET 0 -3.12 0
        }
      }
    }
  }
}
MOTION
Frames:	10
Frame Time:	0.0333333
18.3266 36.3035 -6.39948 0.776081 -12.7558 2.05481 2.13163e-014 4.57 -3.90937e-015 -0.191059 4.43313 -1.49695 1.06581e-014 6.57 -5.77316e-015 -0.0413439 4.00844 -1.39955 1.06 4.19 1.76 7.86668 0.053477 -4.17853 5.81 -4.94161e-014 -2.29312e-014 115.315 -69.0701 50.4617 -1.52619e-013 -12.08 -1.35302e-013 -17.1495 -3.18109 -41.3517 1.42109e-013 -9.82 1.89626e-013 15.4957 -8.30488 1.13184 -1.06 4.19 1.76 -0.0502209 0.571836 5.60993 -6.06 -4.15743e-014 1.7731e-014 -106.462 -59.3866 -41.6605 1.18257e-013 -11.08 -6.79923e-014 11.4498 -23.9471 32.2957 1.42109e-014 -9.82 9.76996e-015 -3.00465 -3.10927 -0.0815873 3.51631e-015 4.05 -4.61853e-014 1.20934 9.22026 -2.36323 -3.55271e-015 5.19 -7.10543e-015 -1.6795 6.33553 -1.63584 3.43 6.26763e-014 -2.87413e-014 14.3692 -7.12063 11.9577 2.84434e-014 -18.47 -4.5919e-014 4.51842 47.6249 -3.7489 -1.12983e-014 -17.95 7.17979e-015 -12.1488 -24.7786 -2.67828 -3.43 -5.9683e-014 -2.94714e-014 -18.3275 -6.69869 -12.4446 -1.55128e-014 -18.47 -2.66084e-014 -6.31045 46.3556 0.0684112 -1.75456e-015 -17.95 6.51858e-015 14.4473 -21.5013 2.75716 
18.3239 36.2849 -6.39637 0.760577 -12.7833 2.03978 2.13163e-014 4.57 -3.147e-015 -0.178961 4.45846 -1.50886 1.06581e-014 6.57 -5.77316e-015 -0.0296755 4.03141 -1.4096 1.06 4.19 1.76 7.86036 0.0567819 -4.13848 5.81 -4.8468e-014 -2.27124e-014 115.685 -69.1477 50.8987 8.52171e-014 -12.08 -1.36488e-013 -17.1715 -3.07003 -41.5408 1.42109e-013 -9.82 -1.75512e-014 15.7864 -8.33202 1.1572 -1.06 4.19 1.76 -0.0183501 0.574293 5.62514 -6.06 -3.90363e-014 1.76267e-014 -106.533 -59.4511 -41.7386 -6.54495e-014 -11.08 8.35863e-014 11.4447 -23.8937 32.0357 1.42109e-014 -9.82 9.76996e-015 -3.00063 -3.07927 -0.0806683 3.18934e-015 4.05 -4.61853e-014 1.23773 9.28156 -2.3591 -3.55271e-015 5.19 -7.10543e-015 -1.89 6.18498 -1.55966 3.43 5.77821e-014 -2.79171e-014 14.4453 -7.12577 12.0111 2.85969e-014 -18.47 -4.51871e-014 4.49552 47.7284 -3.82299 -1.37891e-014 -17.95 7.63417e-015 -12.1808 -24.84 -2.69222 -3.43 -6.98228e-014 -3.29902e-014 -18.2819 -6.69261 -12.3777 -1.67785e-014 -18.47 -2.60768e-014 -6.3736 46.4135 0.09183 -1.71081e-015 -17.95 9.64461e-015 14.6036 -21.547 2.79339 
18.3235 36.2605 -6.38335 0.756793 -12.8516 2.11505 2.13163e-014 4.57 -1.61613e-015 -0.169832 4.50581 -1.5828 1.06581e-014 6.57 -5.77316e-015 -0.0149048 4.0741 -1.4764 1.06 4.19 1.76 7.89594 0.0540224 -4.14405 5.81 -4.71161e-014 -2.2631e-014 115.776 -69.1487 50.9299 2.38067e-013 -12.08 -1.38445e-013 -17.1918 -3.07794 -41.4542 1.42109e-013 -9.82 3.56774e-014 15.9997 -8.35598 1.17635 -1.06 4.19 1.76 0.0356625 0.5785 5.64668 -6.06 -3.59526e-014 1.74704e-014 -106.684 -59.5322 -41.8361 -1.81377e-013 -11.08 1.93381e-013 11.446 -23.802 31.8143 1.42109e-014 -9.82 9.76996e-015 -3.04921 -3.07424 -0.0818456 2.52491e-015 4.05 -4.61853e-014 1.21948 9.28781 -2.3147 -3.55271e-015 5.19 -7.10543e-015 -1.89167 6.20255 -1.514 3.43 4.99791e-014 -2.634e-014 14.5107 -7.14479 12.0216 2.88963e-014 -18.47 -4.41918e-014 4.51306 47.9232 -3.97209 -1.78713e-014 -17.95 8.48944e-015 -12.1377 -24.9654 -2.69662 -3.43 -8.52907e-014 -3.83695e-014 -18.282 -6.62855 -12.3783 -1.86234e-014 -18.47 -2.49448e-014 -6.38435 46.5324 0.0831205 -1.66685e-015 -17.95 1.37545e-014 14.7262 -21.6349 2.82884 
18.3129 36.2485 -6.37098 0.77818 -12.8626 2.19782 2.13163e-014 4.57 6.65447e-016 -0.185867 4.50359 -1.67819 1.06581e-014 6.57 -5.77316e-015 -0.0211703 4.0709 -1.56618 1.06 4.19 1.76 7.8578 0.0540601 -4.17869 5.81 -4.53631e-014 -2.26857e-014 115.465 -69.0666 50.4246 3.68508e-013 -12.08 -1.41153e-013 -17.2017 -3.1889 -40.9325 1.42109e-013 -9.82 4.57553e-014 16.0349 -8.23688 1.16229 -1.06 4.19 1.76 -0.0267236 0.573367 5.70506 -6.06 -3.23421e-014 1.72625e-014 -106.474 -59.56 -41.5943 -2.78344e-013 -11.08 3.02461e-013 11.4744 -23.9706 31.7767 1.42109e-014 -9.82 9.76996e-015 -3.03757 -2.96731 -0.0786857 1.52477e-015 4.05 -4.61853e-014 1.13513 9.31409 -2.21885 -3.55271e-015 5.19 -7.10543e-015 -1.74198 6.22267 -1.48327 3.43 3.95361e-014 -2.40272e-014 14.5104 -7.17029 11.981 2.93408e-014 -18.47 -4.29361e-014 4.56323 47.9806 -4.03698 -2.35175e-014 -17.95 9.73759e-015 -12.1824 -24.9988 -2.71035 -3.43 -1.05343e-013 -4.55706e-014 -18.3013 -6.5863 -12.4141 -2.10416e-014 -18.47 -2.32243e-014 -6.36962 46.5997 0.00584108 -1.62269e-015 -17.95 1.88337e-014 14.8157 -21.6873 2.85327 
18.3012 36.2478 -6.35696 0.766669 -12.8689 2.1956 2.13163e-014 4.57 3.67992e-015 -0.180078 4.51106 -1.70153 1.06581e-014 6.57 -5.77316e-015 -0.0139877 4.07746 -1.58723 1.06 4.19 1.76 7.86354 0.0549504 -4.16108 5.81 -4.32116e-014 -2.2875e-014 115.117 -69.015 50.1398 4.77787e-013 -12.08 -1.44592e-013 -17.1553 -3.31496 -41.2049 1.42109e-013 -9.82 5.04243e-014 15.6438 -8.37656 1.15226 -1.06 4.19 1.76 -0.165749 0.562422 5.69181 -6.06 -2.82241e-014 1.70031e-014 -106.213 -59.6578 -41.4551 -3.57548e-013 -11.08 4.10826e-013 11.4792 -24.0221 31.8602 1.42109e-014 -9.82 9.76996e-015 -2.98817 -2.92623 -0.0763115 1.90668e-016 4.05 -4.61853e-014 1.10347 9.31985 -2.18959 -3.55271e-015 5.19 -7.10543e-015 -1.76978 6.12362 -1.46 3.43 2.67214e-014 -2.09957e-014 14.5314 -7.14781 11.9759 2.99296e-014 -18.47 -4.14232e-014 4.59299 47.9647 -4.07912 -3.07003e-014 -17.95 1.13706e-014 -12.2103 -25.0029 -2.71706 -3.43 -1.29237e-013 -5.45549e-014 -18.2663 -6.58745 -12.4036 -2.40268e-014 -18.47 -2.09274e-014 -6.3813 46.65 -0.0539151 -1.57832e-015 -17.95 2.48676e-014 14.7885 -21.7199 2.85235 
18.2918 36.2503 -6.33334 0.715822 -12.9078 2.11013 2.13163e-014 4.57 7.4095e-015 -0.131333 4.53093 -1.65558 1.06581e-014 6.57 -5.77316e-015 0.0264104 4.0962 -1.54023 1.06 4.19 1.76 7.88291 0.0532444 -4.16698 5.81 -4.06642e-014 -2.31977e-014 114.7 -68.9844 49.8906 5.6715e-013 -12.08 -1.48745e-013 -17.1207 -3.35339 -41.8663 1.42109e-013 -9.82 5.02871e-014 15.528 -8.59577 1.17424 -1.06 4.19 1.76 -0.276963 0.553798 5.64873 -6.06 -2.36177e-014 1.66925e-014 -106.027 -59.7057 -41.4356 -4.2019e-013 -11.08 5.18475e-013 11.4399 -24.0997 31.9268 1.42109e-014 -9.82 9.76996e-015 -2.7775 -2.93139 -0.0711237 -1.47565e-015 4.05 -4.61853e-014 1.09807 9.3164 -2.21782 -3.55271e-015 5.19 -7.10543e-015 -1.94868 6.02925 -1.44892 3.43 1.18035e-014 -1.72625e-014 14.6242 -7.05361 12.0493 3.06619e-014 -18.47 -3.96559e-014 4.57306 47.976 -4.08677 -3.93924e-014 -17.95 1.33806e-014 -12.1608 -25.0467 -2.71086 -3.43 -1.56228e-013 -6.52837e-014 -18.1903 -6.56001 -12.3451 -2.75732e-014 -18.47 -1.8066e-014 -6.41332 46.6675 -0.0321004 -1.53376e-015 -17.95 3.18416e-014 14.7227 -21.758 2.84465 
18.2809 36.2598 -6.32075 0.697889 -12.8474 2.04751 2.13163e-014 4.57 1.18364e-014 -0.12788 4.47245 -1.61225 1.06581e-014 6.57 -5.77316e-015 0.0251143 4.04345 -1.49949 1.06 4.19 1.76 7.91503 0.0475798 -4.21553 5.81 -3.77234e-014 -2.36523e-014 113.877 -68.9681 49.2488 6.37843e-013 -12.08 -1.5359e-013 -17.096 -3.47758 -41.8606 1.42109e-013 -9.82 4.59463e-014 15.5428 -8.63726 1.18089 -1.06 4.19 1.76 -0.215715 0.558449 5.69805 -6.06 -1.85421e-014 1.63308e-014 -105.85 -59.5905 -41.185 -4.67469e-013 -11.08 6.25408e-013 11.45 -24.2221 31.9917 1.42109e-014 -9.82 9.76996e-015 -2.68494 -2.87813 -0.0674486 -3.47245e-015 4.05 -4.61853e-014 1.14557 9.33931 -2.23208 -3.55271e-015 5.19 -7.10543e-015 -2.11357 6.16333 -1.41128 3.43 -4.94908e-015 -1.28447e-014 14.6485 -7.0307 12.0799 3.15369e-014 -18.47 -3.76373e-014 4.54783 47.8999 -4.03978 -4.95663e-014 -17.95 1.57595e-014 -12.1603 -25.035 -2.70945 -3.43 -1.85574e-013 -7.77185e-014 -18.1551 -6.56794 -12.3327 -3.16745e-014 -18.47 -1.46521e-014 -6.39652 46.5684 -0.0154242 -1.48899e-015 -17.95 3.97412e-014 14.7486 -21.7343 2.84652 
18.2698 36.2715 -6.31556 0.750167 -12.7677 2.01648 2.13163e-014 4.57 1.69427e-014 -0.184075 4.44903 -1.52912 1.06581e-014 6.57 -5.77316e-015 -0.0336645 4.02236 -1.42952 1.06 4.19 1.76 7.83442 0.0496657 -4.26205 5.81 -3.43918e-014 -2.42374e-014 113.801 -68.9599 49.0659 6.91112e-013 -12.08 -1.59111e-013 -17.1184 -3.53177 -41.9632 1.42109e-013 -9.82 3.80046e-014 15.3174 -8.61942 1.16125 -1.06 4.19 1.76 -0.0703731 0.570024 5.67161 -6.06 -1.30163e-014 1.59183e-014 -105.896 -59.4284 -41.0769 -5.00585e-013 -11.08 7.31622e-013 11.4806 -24.2813 32.0106 1.42109e-014 -9.82 9.76996e-015 -2.75548 -2.92024 -0.0702558 -5.79798e-015 4.05 -4.61853e-014 1.21664 9.27741 -2.29919 -3.55271e-015 5.19 -7.10543e-015 -2.1926 6.33427 -1.43611 3.43 -2.32678e-014 -7.75933e-015 14.5482 -6.99698 12.0278 3.25536e-014 -18.47 -3.53704e-014 4.5476 47.7172 -3.91319 -6.11949e-014 -17.95 1.84993e-014 -12.3014 -24.9484 -2.73129 -3.43 -2.1653e-013 -9.18206e-014 -18.201 -6.63677 -12.3543 -3.63247e-014 -18.47 -1.06976e-014 -6.38569 46.5338 0.0410366 -1.44404e-015 -17.95 4.85518e-014 14.6891 -21.7375 2.83534 
18.2564 36.2792 -6.30621 0.767432 -12.703 1.97333 2.13163e-014 4.57 2.27108e-014 -0.208458 4.46117 -1.45243 1.06581e-014 6.57 -5.77316e-015 -0.0615967 4.03378 -1.36217 1.06 4.19 1.76 7.80169 0.0511312 -4.27205 5.81 -3.0672e-014 -2.49517e-014 114.091 -68.9658 49.135 7.28202e-013 -12.08 -1.65286e-013 -17.1866 -3.45832 -42.1034 1.42109e-013 -9.82 2.70647e-014 15.3704 -8.46639 1.14448 -1.06 4.19 1.76 -0.0255331 0.57395 5.55335 -6.06 -7.05969e-015 1.54552e-014 -106.141 -59.414 -41.3116 -5.20738e-013 -11.08 8.37119e-013 11.4847 -24.2336 32.1304 1.42109e-014 -9.82 9.76996e-015 -2.75756 -2.9917 -0.07202 -8.4505e-015 4.05 -4.61853e-014 1.2451 9.22924 -2.36015 -3.55271e-015 5.19 -7.10543e-015 -2.19692 6.18185 -1.48573 3.43 -4.28843e-014 -2.02341e-015 14.5234 -6.98013 12.0245 3.37113e-014 -18.47 -3.28582e-014 4.53204 47.6072 -3.85919 -7.42506e-014 -17.95 2.15921e-014 -12.3604 -24.9055 -2.73965 -3.43 -2.48354e-013 -1.07551e-013 -18.2053 -6.70634 -12.3455 -4.15178e-014 -18.47 -6.2146e-015 -6.38582 46.5439 0.101686 -1.39889e-015 -17.95 5.82587e-014 14.5911 -21.7797 2.82182 
18.2447 36.2751 -6.29362 0.749872 -12.5718 1.99331 2.13163e-014 4.57 2.91227e-014 -0.21012 4.382 -1.48426 1.06581e-014 6.57 -5.77316e-015 -0.0592501 3.96179 -1.38977 1.06 4.19 1.76 7.94541 0.0415849 -4.27034 5.81 -2.65667e-014 -2.57938e-014 113.398 -68.881 48.5176 7.5036e-013 -12.08 -1.72098e-013 -17.1892 -3.6479 -41.9138 1.42109e-013 -9.82 1.37292e-014 15.3545 -8.38263 1.13198 -1.06 4.19 1.76 -0.0112162 0.574937 5.59762 -6.06 -6.91259e-016 1.49417e-014 -106.365 -59.4643 -41.5408 -5.29127e-013 -11.08 9.41896e-013 11.4747 -24.0143 32.1427 1.42109e-014 -9.82 9.76996e-015 -2.71504 -3.03662 -0.0719705 -1.14283e-014 4.05 -4.61853e-014 1.28607 9.24454 -2.3181 -3.55271e-015 5.19 -7.10543e-015 -2.29309 6.19495 -1.39855 3.43 -6.35299e-014 4.346e-015 14.5409 -7.10915 12.0015 3.50091e-014 -18.47 -3.01037e-014 4.55927 47.6328 -3.88678 -8.87061e-014 -17.95 2.50298e-014 -12.375 -24.942 -2.74707 -3.43 -2.80302e-013 -1.24872e-013 -18.203 -6.78904 -12.3852 -4.72478e-014 -18.47 -1.21494e-015 -6.32226 46.5436 0.0874468 -1.35356e-015 -17.95 6.88476e-014 14.6204 -21.8199 2.8329 
